<?xml version="1.0" encoding="utf-8"?>
<!-- Generator: Adobe Illustrator 19.1.0, SVG Export Plug-In . SVG Version: 6.00 Build 0)  -->
<svg version="1.1" id="Layer_1" xmlns="http://www.w3.org/2000/svg" xmlns:xlink="http://www.w3.org/1999/xlink" x="0px" y="0px"
	 width="238px" height="50px" viewBox="-30 126 238 50" style="enable-background:new -30 126 238 50;" xml:space="preserve">
<style type="text/css">
	.st0{fill:#F5C400;}
	.st1{fill:#FFFFFF;}
	.st2{fill:#231F20;}
</style>
<g>
	<g>
		<circle class="st0" cx="-5.9" cy="150.1" r="24.1"/>
		<rect x="-19.9" y="158.6" class="st1" width="28.9" height="3.8"/>
		<g>
			<g>
				<path class="st1" d="M6.4,136.5c-0.4-0.2-2.9-1.2-4.5-1.7c-1.6-0.5-4-1.2-5.8-1.1c-1.8,0.2-3.2,1.5-4.5,2.5
					c-1.3,1-2.2,0.1-2.2,0.1s0-1.2,0-2.2c0-0.9-0.8-1-0.8-1s-4.6,0-6,0c-1.4,0-1.3,0.9-1.3,0.9v2.4c-0.3,0.1-0.6,0.9-0.8,1.7
					c-0.2,0.8-0.3,2.9-0.3,3.8c0,0.9,0,4.2,0,4.2l28.9,0c0-0.4,0-5.3,0-5.3C9.3,137.7,6.8,136.7,6.4,136.5z M5.3,141.5
					c0,0-0.3,1-3.3,0l-6.9-2.1c0,0-1.1-0.4-0.2-1.5c0.9-1,2.2-1,2.8-0.9c0.6,0.1,2.6,0.7,3.3,0.9c0.6,0.2,2.8,1,3.1,1.1
					c0.3,0.1,0.9,0.4,1,0.5c0.1,0.1,0.2,0.1,0.2,0.6C5.3,140.8,5.3,141.5,5.3,141.5z"/>
			</g>
		</g>
		<path class="st1" d="M-19.9,164.3v5.2c0,0,0,1,0.8,1c0.8,0,27.5,0,27.5,0s0.6,0,0.6-1.1c0-1.1,0-5.1,0-5.1H-19.9z"/>
		<g>
			<path class="st2" d="M-18.1,147.8v7.2h7.2v1.8h-9v-9H-18.1z"/>
			<path class="st2" d="M-0.9,156.8h-7.2c0,0,0,0-0.1,0c0,0,0,0-0.1,0c-0.8,0-1.3-0.2-1.4-0.6c-0.1-0.4-0.2-1.7-0.2-3.9
				c0-2.2,0.1-3.5,0.2-3.9c0.1-0.4,0.7-0.6,1.5-0.6c0,0,0,0,0,0h7.2v1.8h-7.2v1.8h5.4v1.8h-5.4v1.8h7.2V156.8z"/>
			<path class="st2" d="M9,156.8H1.9c0,0,0,0-0.1,0c0,0,0,0-0.1,0c-0.8,0-1.3-0.2-1.4-0.6c-0.1-0.4-0.2-1.7-0.2-3.9
				c0-2.2,0.1-3.5,0.2-3.9c0.1-0.4,0.7-0.6,1.5-0.6c0,0,0,0,0,0H9v1.8H1.9v1.8h5.4v1.8H1.9v1.8H9V156.8z"/>
		</g>
		<path class="st0" d="M22.9,171.3c-1.4-1.1-2.9-1.9-4.6-2.5c-1.7-0.5-3.4-0.9-5.1-1.1c-1.8-0.2-3.8-0.2-5.9,0.1
			c-2.1,0.3-4.3,0.7-6.5,1.1c-2.2,0.4-4.4,0.8-6.5,1.1c-2.1,0.3-4.1,0.3-5.8,0.1c-2.5-0.3-4.5-1-6.1-1.9c-1.6-1-4.1-2.6-5.6-4.5
			l-1.7,1.1c1,1.6,2.4,2.9,3.6,4c1.1,1,1.9,2,3.1,3c1.1,1,2.4,1.8,3.8,2.5c1.4,0.7,3,1.2,4.8,1.4c1.6,0.2,3.2,0.2,4.7,0
			c1.5-0.2,3.1-0.6,4.5-1.1c1.5-0.5,2.9-1,4.3-1.6c1.4-0.6,2.8-1.1,4.2-1.6c1.4-0.5,2.8-0.9,4.1-1.1c1.4-0.3,2.8-0.3,4.2-0.1
			c1,0.1,2.1,0.4,3.2,0.8c1.1,0.4,2,0.9,2.7,1.4L22.9,171.3z"/>
	</g>
	<g>
		<path class="st2" d="M23.1,158.4v-17.7h4.3v14h6.9v3.7H23.1z"/>
		<path class="st2" d="M36.2,158.4v-17.7h11.9v3.6h-7.8v3.4h7.4v3.4h-7.4v3.7h8.2v3.7H36.2z"/>
		<path class="st2" d="M51.4,158.4v-17.7h11.9v3.6h-7.8v3.4h7.4v3.4h-7.4v3.7h8.2v3.7H51.4z"/>
		<path class="st2" d="M82,155.5c-0.3,0.4-0.7,0.9-1.1,1.3c-0.4,0.4-0.9,0.8-1.5,1.1c-0.6,0.3-1.2,0.5-1.9,0.7
			c-0.7,0.2-1.4,0.3-2.2,0.3c-1.3,0-2.6-0.2-3.7-0.7c-1.1-0.5-2.1-1.1-2.9-1.9c-0.8-0.8-1.5-1.8-1.9-2.9c-0.5-1.1-0.7-2.4-0.7-3.7
			c0-1.4,0.2-2.6,0.7-3.7c0.5-1.1,1.1-2.1,1.9-2.9c0.8-0.8,1.8-1.5,2.9-1.9c1.1-0.5,2.3-0.7,3.7-0.7c0.7,0,1.3,0.1,1.9,0.2
			c0.6,0.1,1.2,0.3,1.8,0.6c0.6,0.2,1.1,0.5,1.5,0.9c0.4,0.3,0.8,0.7,1.1,1.2l-1.5,1.1c-0.2-0.3-0.4-0.6-0.7-0.8
			c-0.3-0.3-0.7-0.5-1.1-0.8c-0.4-0.2-0.9-0.4-1.4-0.5c-0.5-0.1-1-0.2-1.6-0.2c-1.2,0-2.2,0.2-3.1,0.6c-0.9,0.4-1.7,1-2.3,1.7
			c-0.6,0.7-1.1,1.5-1.5,2.5c-0.3,0.9-0.5,1.9-0.5,2.9c0,1,0.2,2,0.5,2.9c0.3,0.9,0.8,1.8,1.5,2.5c0.6,0.7,1.4,1.3,2.3,1.7
			c0.9,0.4,1.9,0.6,3.1,0.6c1,0,2-0.2,2.9-0.6c0.9-0.4,1.7-1.1,2.3-2L82,155.5z"/>
		<path class="st2" d="M102.4,149.5c0,1.4-0.2,2.6-0.7,3.7c-0.5,1.1-1.1,2.1-1.9,2.9c-0.8,0.8-1.8,1.5-2.9,1.9
			c-1.1,0.5-2.3,0.7-3.7,0.7c-1.3,0-2.5-0.2-3.7-0.7c-1.1-0.5-2.1-1.1-2.9-1.9c-0.8-0.8-1.5-1.8-1.9-2.9c-0.5-1.1-0.7-2.4-0.7-3.7
			c0-1.4,0.2-2.6,0.7-3.7c0.5-1.1,1.1-2.1,1.9-2.9c0.8-0.8,1.8-1.5,2.9-1.9c1.1-0.5,2.3-0.7,3.7-0.7c1.3,0,2.5,0.2,3.7,0.7
			c1.1,0.5,2.1,1.1,2.9,1.9c0.8,0.8,1.5,1.8,1.9,2.9C102.1,146.9,102.4,148.2,102.4,149.5z M100.5,149.5c0-1-0.2-2-0.5-2.9
			c-0.3-0.9-0.8-1.8-1.5-2.5c-0.6-0.7-1.4-1.3-2.3-1.7c-0.9-0.4-1.9-0.6-3.1-0.6c-1.1,0-2.2,0.2-3.1,0.6c-0.9,0.4-1.7,1-2.3,1.7
			c-0.6,0.7-1.1,1.5-1.5,2.5c-0.3,0.9-0.5,1.9-0.5,2.9c0,1,0.2,2,0.5,2.9c0.3,0.9,0.8,1.7,1.5,2.4c0.6,0.7,1.4,1.3,2.3,1.7
			c0.9,0.4,1.9,0.6,3.1,0.6c1.1,0,2.2-0.2,3.1-0.6c0.9-0.4,1.7-1,2.3-1.7c0.6-0.7,1.1-1.5,1.5-2.4
			C100.3,151.5,100.5,150.6,100.5,149.5z"/>
		<path class="st2" d="M118.7,155.8L118.7,155.8l0-15.1h1.8v17.7h-2.3L108,143.1h-0.1v15.2h-1.8v-17.7h2.3L118.7,155.8z"/>
		<path class="st2" d="M130.9,158.4h-1.8v-16.1h-5.9v-1.6h13.7v1.6h-5.9V158.4z"/>
		<path class="st2" d="M137.9,158.4h-2l7.7-17.7h1.8l7.6,17.7h-2l-2-4.7h-9.2L137.9,158.4z M140.5,152.1h7.8l-3.9-9.4L140.5,152.1z"
			/>
		<path class="st2" d="M157.3,158.4h-1.8v-17.7h1.8V158.4z"/>
		<path class="st2" d="M174.6,155.8L174.6,155.8l0-15.1h1.8v17.7h-2.3l-10.3-15.2h0v15.2H162v-17.7h2.3L174.6,155.8z"/>
		<path class="st2" d="M182.9,156.8h9.5v1.6h-11.3v-17.7h11v1.6h-9.2v6.1h8.6v1.6h-8.6V156.8z"/>
		<path class="st2" d="M197.7,158.4h-1.8v-17.7h5.2c0.9,0,1.7,0.1,2.4,0.3c0.7,0.2,1.4,0.4,1.9,0.8c0.5,0.4,1,0.9,1.3,1.5
			c0.3,0.6,0.5,1.3,0.5,2.2c0,0.6-0.1,1.2-0.4,1.8c-0.2,0.5-0.6,1-1,1.4c-0.4,0.4-0.9,0.7-1.4,0.9c-0.6,0.2-1.2,0.4-1.8,0.4l5.2,8.4
			h-2.2l-4.9-8.3h-3V158.4z M197.7,148.5h3.1c1.5,0,2.6-0.3,3.4-0.8c0.8-0.5,1.2-1.3,1.2-2.4c0-0.6-0.1-1.1-0.3-1.5
			c-0.2-0.4-0.5-0.7-0.9-1c-0.4-0.2-0.9-0.4-1.4-0.5c-0.6-0.1-1.2-0.2-1.8-0.2h-3.2V148.5z"/>
	</g>
	<g>
		<path class="st2" d="M53.2,168.5c0,0.7-0.1,1.3-0.3,1.8c-0.2,0.6-0.5,1-0.9,1.4c-0.4,0.4-0.9,0.7-1.4,0.9
			c-0.5,0.2-1.1,0.3-1.8,0.3c-0.6,0-1.2-0.1-1.8-0.3c-0.5-0.2-1-0.5-1.4-0.9c-0.4-0.4-0.7-0.9-0.9-1.4s-0.3-1.2-0.3-1.8
			c0-0.7,0.1-1.3,0.3-1.8s0.5-1,0.9-1.4c0.4-0.4,0.9-0.7,1.4-0.9c0.5-0.2,1.1-0.3,1.8-0.3c0.6,0,1.2,0.1,1.8,0.3
			c0.5,0.2,1,0.5,1.4,0.9c0.4,0.4,0.7,0.9,0.9,1.4C53.1,167.3,53.2,167.9,53.2,168.5z M52.2,168.5c0-0.5-0.1-1-0.2-1.4
			c-0.2-0.5-0.4-0.8-0.7-1.2c-0.3-0.3-0.7-0.6-1.1-0.8c-0.4-0.2-0.9-0.3-1.5-0.3s-1,0.1-1.5,0.3c-0.4,0.2-0.8,0.5-1.1,0.8
			c-0.3,0.3-0.5,0.7-0.7,1.2c-0.2,0.5-0.2,0.9-0.2,1.4s0.1,1,0.2,1.4c0.2,0.5,0.4,0.8,0.7,1.2c0.3,0.3,0.7,0.6,1.1,0.8
			c0.4,0.2,0.9,0.3,1.5,0.3s1-0.1,1.5-0.3c0.4-0.2,0.8-0.5,1.1-0.8c0.3-0.3,0.5-0.7,0.7-1.2C52.2,169.5,52.2,169,52.2,168.5z"/>
		<path class="st2" d="M59.1,172.8c0-0.2,0-0.3,0-0.5c0-0.2,0-0.3,0-0.5h0c-0.2,0.3-0.4,0.6-0.8,0.8c-0.4,0.2-0.7,0.3-1.2,0.3
			c-0.7,0-1.3-0.2-1.6-0.6c-0.4-0.4-0.5-1-0.5-1.7v-3.5h0.8v3.1c0,0.3,0,0.6,0.1,0.8c0,0.2,0.1,0.5,0.2,0.6c0.1,0.2,0.3,0.3,0.5,0.4
			c0.2,0.1,0.4,0.1,0.7,0.1c0.2,0,0.4,0,0.6-0.1c0.2-0.1,0.4-0.2,0.6-0.4c0.2-0.2,0.3-0.4,0.4-0.7c0.1-0.3,0.1-0.6,0.1-1v-2.9h0.8
			v4.4c0,0.2,0,0.4,0,0.6c0,0.2,0,0.5,0,0.7H59.1z"/>
		<path class="st2" d="M62,167.8c0-0.2,0-0.5,0-0.7h0.8c0,0.2,0,0.3,0,0.5c0,0.2,0,0.3,0,0.5h0c0.2-0.3,0.4-0.6,0.7-0.8
			c0.3-0.2,0.7-0.3,1.1-0.3c0.1,0,0.2,0,0.3,0c0.1,0,0.2,0,0.3,0l-0.1,0.8c0,0-0.1,0-0.2,0c-0.1,0-0.2,0-0.3,0c-0.2,0-0.4,0-0.6,0.1
			c-0.2,0.1-0.4,0.2-0.5,0.4c-0.1,0.2-0.3,0.4-0.4,0.7c-0.1,0.3-0.1,0.6-0.1,1v2.9H62v-4.4C62,168.2,62,168,62,167.8z"/>
		<path class="st2" d="M76.7,171.4c-0.1,0.2-0.3,0.4-0.5,0.6c-0.2,0.2-0.4,0.4-0.7,0.5c-0.3,0.1-0.6,0.3-0.9,0.4
			c-0.3,0.1-0.7,0.1-1.1,0.1c-0.6,0-1.2-0.1-1.8-0.3c-0.6-0.2-1-0.5-1.4-0.9c-0.4-0.4-0.7-0.9-0.9-1.4c-0.2-0.6-0.3-1.2-0.3-1.8
			c0-0.7,0.1-1.3,0.3-1.8c0.2-0.6,0.5-1,0.9-1.4c0.4-0.4,0.9-0.7,1.4-0.9c0.5-0.2,1.1-0.3,1.8-0.3c0.3,0,0.6,0,0.9,0.1
			c0.3,0.1,0.6,0.2,0.9,0.3c0.3,0.1,0.5,0.3,0.7,0.4c0.2,0.2,0.4,0.4,0.5,0.6l-0.7,0.5c-0.1-0.1-0.2-0.3-0.4-0.4
			c-0.2-0.1-0.3-0.3-0.5-0.4c-0.2-0.1-0.4-0.2-0.7-0.3c-0.2-0.1-0.5-0.1-0.8-0.1c-0.6,0-1.1,0.1-1.5,0.3c-0.4,0.2-0.8,0.5-1.1,0.8
			c-0.3,0.3-0.5,0.7-0.7,1.2c-0.2,0.5-0.2,0.9-0.2,1.4c0,0.5,0.1,1,0.2,1.4c0.2,0.5,0.4,0.8,0.7,1.2c0.3,0.3,0.7,0.6,1.1,0.8
			c0.4,0.2,0.9,0.3,1.5,0.3c0.5,0,1-0.1,1.4-0.3c0.4-0.2,0.8-0.5,1.1-1L76.7,171.4z"/>
		<path class="st2" d="M83.6,170c0,0.4-0.1,0.8-0.2,1.2c-0.1,0.4-0.4,0.7-0.6,0.9c-0.3,0.3-0.6,0.5-1,0.6c-0.4,0.1-0.8,0.2-1.2,0.2
			c-0.4,0-0.8-0.1-1.2-0.2c-0.4-0.1-0.7-0.4-1-0.6c-0.3-0.3-0.5-0.6-0.6-0.9c-0.2-0.4-0.2-0.8-0.2-1.2c0-0.4,0.1-0.8,0.2-1.2
			c0.1-0.4,0.4-0.7,0.6-0.9c0.3-0.3,0.6-0.5,1-0.6c0.4-0.1,0.8-0.2,1.2-0.2c0.4,0,0.9,0.1,1.2,0.2c0.4,0.2,0.7,0.4,1,0.6
			c0.3,0.3,0.5,0.6,0.6,0.9C83.5,169.2,83.6,169.6,83.6,170z M82.7,170c0-0.3-0.1-0.6-0.2-0.9c-0.1-0.3-0.2-0.5-0.4-0.7
			c-0.2-0.2-0.4-0.4-0.7-0.5c-0.3-0.1-0.6-0.2-0.9-0.2s-0.6,0.1-0.9,0.2c-0.3,0.1-0.5,0.3-0.7,0.5c-0.2,0.2-0.3,0.4-0.4,0.7
			c-0.1,0.3-0.2,0.6-0.2,0.9s0.1,0.6,0.2,0.9c0.1,0.3,0.2,0.5,0.4,0.7c0.2,0.2,0.4,0.4,0.7,0.5c0.3,0.1,0.6,0.2,0.9,0.2
			s0.6-0.1,0.9-0.2c0.3-0.1,0.5-0.3,0.7-0.5c0.2-0.2,0.3-0.4,0.4-0.7C82.7,170.6,82.7,170.3,82.7,170z"/>
		<path class="st2" d="M86.1,167.1c0,0.2,0,0.3,0,0.5c0,0.2,0,0.3,0,0.5h0c0.2-0.3,0.4-0.6,0.8-0.8c0.4-0.2,0.7-0.3,1.2-0.3
			c0.7,0,1.3,0.2,1.6,0.6c0.4,0.4,0.5,1,0.5,1.7v3.5h-0.8v-3.1c0-0.3,0-0.6-0.1-0.8c0-0.2-0.1-0.4-0.2-0.6c-0.1-0.2-0.3-0.3-0.5-0.4
			c-0.2-0.1-0.4-0.1-0.7-0.1c-0.2,0-0.4,0-0.6,0.1c-0.2,0.1-0.4,0.2-0.6,0.4c-0.2,0.2-0.3,0.4-0.4,0.7c-0.1,0.3-0.1,0.6-0.1,1v2.9
			h-0.8v-4.4c0-0.2,0-0.4,0-0.6c0-0.2,0-0.5,0-0.7H86.1z"/>
		<path class="st2" d="M95,167.8h-1.6v3.3c0,0.2,0,0.4,0.1,0.5c0,0.1,0.1,0.2,0.2,0.3c0.1,0.1,0.2,0.1,0.3,0.2c0.1,0,0.2,0,0.3,0
			c0.1,0,0.2,0,0.4,0c0.1,0,0.2-0.1,0.4-0.1l0,0.7c-0.1,0.1-0.3,0.1-0.5,0.1c-0.2,0-0.3,0-0.5,0c-0.2,0-0.3,0-0.5-0.1
			c-0.2,0-0.3-0.1-0.5-0.2c-0.1-0.1-0.3-0.3-0.4-0.5c-0.1-0.2-0.1-0.4-0.1-0.8v-3.5h-1.2v-0.7h1.2v-1.6h0.8v1.6H95V167.8z"/>
		<path class="st2" d="M99.9,169.1c0-0.5-0.1-0.9-0.4-1.1c-0.3-0.2-0.6-0.4-1.1-0.4c-0.3,0-0.7,0.1-0.9,0.2
			c-0.3,0.1-0.5,0.3-0.7,0.5l-0.5-0.5c0.2-0.2,0.5-0.4,0.9-0.6c0.4-0.2,0.8-0.2,1.3-0.2c0.3,0,0.6,0,0.9,0.1
			c0.3,0.1,0.5,0.2,0.7,0.4c0.2,0.2,0.4,0.4,0.5,0.6c0.1,0.3,0.2,0.6,0.2,0.9v2.5c0,0.2,0,0.4,0,0.7c0,0.2,0,0.4,0.1,0.6H100
			c0-0.1,0-0.3-0.1-0.4c0-0.2,0-0.3,0-0.5h0c-0.3,0.4-0.6,0.7-0.9,0.8c-0.3,0.2-0.7,0.2-1.2,0.2c-0.2,0-0.4,0-0.7-0.1
			c-0.2-0.1-0.4-0.2-0.6-0.3c-0.2-0.1-0.3-0.3-0.5-0.5c-0.1-0.2-0.2-0.5-0.2-0.8c0-0.4,0.1-0.8,0.3-1c0.2-0.3,0.5-0.4,0.9-0.6
			c0.4-0.1,0.8-0.2,1.3-0.2c0.5,0,1-0.1,1.5-0.1V169.1z M99.6,170c-0.3,0-0.7,0-1,0c-0.3,0-0.7,0.1-0.9,0.2
			c-0.3,0.1-0.5,0.2-0.7,0.4c-0.2,0.2-0.3,0.4-0.3,0.6c0,0.2,0,0.4,0.1,0.5c0.1,0.1,0.2,0.2,0.3,0.3c0.1,0.1,0.3,0.1,0.4,0.2
			c0.2,0,0.3,0.1,0.5,0.1c0.3,0,0.6-0.1,0.8-0.2c0.2-0.1,0.4-0.2,0.6-0.4c0.2-0.2,0.3-0.4,0.4-0.6c0.1-0.2,0.1-0.5,0.1-0.7V170H99.6
			z"/>
		<path class="st2" d="M103.8,165c0,0.2-0.1,0.3-0.2,0.4c-0.1,0.1-0.3,0.2-0.4,0.2c-0.1,0-0.3-0.1-0.4-0.2c-0.1-0.1-0.2-0.2-0.2-0.4
			c0-0.2,0.1-0.3,0.2-0.4c0.1-0.1,0.3-0.2,0.4-0.2c0.1,0,0.3,0.1,0.4,0.2C103.7,164.6,103.8,164.8,103.8,165z M103.6,172.8h-0.8
			v-5.7h0.8V172.8z"/>
		<path class="st2" d="M106.5,167.1c0,0.2,0,0.3,0,0.5c0,0.2,0,0.3,0,0.5h0c0.2-0.3,0.4-0.6,0.8-0.8c0.4-0.2,0.7-0.3,1.2-0.3
			c0.7,0,1.3,0.2,1.6,0.6c0.4,0.4,0.5,1,0.5,1.7v3.5h-0.8v-3.1c0-0.3,0-0.6-0.1-0.8c0-0.2-0.1-0.4-0.2-0.6c-0.1-0.2-0.3-0.3-0.5-0.4
			c-0.2-0.1-0.4-0.1-0.7-0.1c-0.2,0-0.4,0-0.6,0.1c-0.2,0.1-0.4,0.2-0.6,0.4c-0.2,0.2-0.3,0.4-0.4,0.7c-0.1,0.3-0.1,0.6-0.1,1v2.9
			h-0.8v-4.4c0-0.2,0-0.4,0-0.6c0-0.2,0-0.5,0-0.7H106.5z"/>
		<path class="st2" d="M118,169.8c0,0.1,0,0.1,0,0.2c0,0.1,0,0.1,0,0.2h-4.7c0,0.3,0.1,0.6,0.2,0.8c0.1,0.3,0.3,0.5,0.4,0.7
			c0.2,0.2,0.4,0.3,0.7,0.4c0.3,0.1,0.5,0.2,0.8,0.2c0.4,0,0.8-0.1,1.1-0.3c0.3-0.2,0.5-0.4,0.7-0.7l0.6,0.5
			c-0.3,0.4-0.7,0.7-1.1,0.9c-0.4,0.2-0.8,0.3-1.3,0.3c-0.4,0-0.8-0.1-1.2-0.2c-0.4-0.1-0.7-0.4-0.9-0.6c-0.3-0.3-0.5-0.6-0.6-0.9
			c-0.1-0.4-0.2-0.8-0.2-1.2c0-0.4,0.1-0.8,0.2-1.2c0.1-0.4,0.3-0.7,0.6-0.9c0.3-0.3,0.6-0.5,0.9-0.6c0.3-0.1,0.7-0.2,1.1-0.2
			c0.4,0,0.8,0.1,1.2,0.2c0.3,0.2,0.6,0.4,0.8,0.6c0.2,0.3,0.4,0.6,0.5,0.9C117.9,169.1,118,169.4,118,169.8z M117.2,169.5
			c0-0.5-0.2-1-0.5-1.3c-0.3-0.4-0.8-0.5-1.4-0.5c-0.3,0-0.5,0.1-0.8,0.2c-0.2,0.1-0.4,0.2-0.6,0.4c-0.2,0.2-0.3,0.4-0.4,0.6
			c-0.1,0.2-0.2,0.5-0.2,0.7H117.2z"/>
		<path class="st2" d="M119.8,167.8c0-0.2,0-0.5,0-0.7h0.8c0,0.2,0,0.3,0,0.5c0,0.2,0,0.3,0,0.5h0c0.2-0.3,0.4-0.6,0.7-0.8
			c0.3-0.2,0.7-0.3,1.1-0.3c0.1,0,0.2,0,0.3,0c0.1,0,0.2,0,0.3,0l-0.1,0.8c0,0-0.1,0-0.2,0c-0.1,0-0.2,0-0.3,0c-0.2,0-0.4,0-0.6,0.1
			c-0.2,0.1-0.4,0.2-0.5,0.4c-0.1,0.2-0.3,0.4-0.4,0.7c-0.1,0.3-0.1,0.6-0.1,1v2.9h-0.8v-4.4C119.8,168.2,119.8,168,119.8,167.8z"/>
		<path class="st2" d="M127.2,168.5c-0.1-0.2-0.3-0.4-0.6-0.6c-0.2-0.1-0.5-0.2-0.8-0.2c-0.1,0-0.3,0-0.4,0c-0.1,0-0.3,0.1-0.4,0.2
			c-0.1,0.1-0.2,0.2-0.3,0.3c-0.1,0.1-0.1,0.2-0.1,0.4c0,0.3,0.1,0.5,0.3,0.6c0.2,0.1,0.6,0.3,1,0.4c0.7,0.1,1.2,0.3,1.5,0.6
			c0.3,0.3,0.5,0.6,0.5,1.1c0,0.3-0.1,0.6-0.2,0.8c-0.1,0.2-0.3,0.4-0.5,0.5c-0.2,0.1-0.4,0.2-0.7,0.3c-0.3,0.1-0.5,0.1-0.8,0.1
			c-0.4,0-0.8-0.1-1.2-0.3c-0.4-0.2-0.7-0.5-1-0.8l0.7-0.5c0.1,0.3,0.4,0.5,0.6,0.6c0.3,0.2,0.6,0.3,0.9,0.3c0.2,0,0.3,0,0.5,0
			c0.2,0,0.3-0.1,0.4-0.2c0.1-0.1,0.2-0.2,0.3-0.3c0.1-0.1,0.1-0.3,0.1-0.5c0-0.3-0.1-0.5-0.4-0.7c-0.3-0.1-0.7-0.3-1.2-0.4
			c-0.2,0-0.4-0.1-0.5-0.2c-0.2-0.1-0.4-0.1-0.5-0.3c-0.2-0.1-0.3-0.3-0.4-0.4c-0.1-0.2-0.2-0.4-0.2-0.7c0-0.3,0.1-0.5,0.2-0.7
			c0.1-0.2,0.3-0.4,0.5-0.5c0.2-0.1,0.4-0.2,0.6-0.3c0.2-0.1,0.5-0.1,0.8-0.1c0.4,0,0.8,0.1,1.2,0.3c0.4,0.2,0.7,0.4,0.8,0.8
			L127.2,168.5z"/>
		<path class="st2" d="M130.7,172.2c0,0.2-0.1,0.3-0.2,0.5c-0.1,0.1-0.3,0.2-0.5,0.2c-0.2,0-0.4-0.1-0.5-0.2
			c-0.1-0.1-0.2-0.3-0.2-0.5s0.1-0.3,0.2-0.5c0.1-0.1,0.3-0.2,0.5-0.2c0.2,0,0.4,0.1,0.5,0.2C130.6,171.9,130.7,172.1,130.7,172.2z"
			/>
		<path class="st2" d="M138,172.8h-0.9v-3.7l-3.2-4.9h1.1l2.6,4.2l2.6-4.2h1l-3.2,4.9V172.8z"/>
		<path class="st2" d="M146.9,170c0,0.4-0.1,0.8-0.2,1.2c-0.2,0.4-0.4,0.7-0.6,0.9c-0.3,0.3-0.6,0.5-1,0.6c-0.4,0.1-0.8,0.2-1.2,0.2
			c-0.4,0-0.8-0.1-1.2-0.2c-0.4-0.1-0.7-0.4-1-0.6c-0.3-0.3-0.5-0.6-0.6-0.9c-0.2-0.4-0.2-0.8-0.2-1.2c0-0.4,0.1-0.8,0.2-1.2
			c0.1-0.4,0.4-0.7,0.6-0.9c0.3-0.3,0.6-0.5,1-0.6c0.4-0.1,0.8-0.2,1.2-0.2c0.4,0,0.9,0.1,1.2,0.2c0.4,0.2,0.7,0.4,1,0.6
			c0.3,0.3,0.5,0.6,0.6,0.9C146.8,169.2,146.9,169.6,146.9,170z M146,170c0-0.3-0.1-0.6-0.2-0.9c-0.1-0.3-0.2-0.5-0.4-0.7
			c-0.2-0.2-0.4-0.4-0.7-0.5c-0.3-0.1-0.6-0.2-0.9-0.2c-0.3,0-0.6,0.1-0.9,0.2c-0.3,0.1-0.5,0.3-0.7,0.5c-0.2,0.2-0.3,0.4-0.4,0.7
			c-0.1,0.3-0.2,0.6-0.2,0.9s0.1,0.6,0.2,0.9c0.1,0.3,0.2,0.5,0.4,0.7c0.2,0.2,0.4,0.4,0.7,0.5c0.3,0.1,0.6,0.2,0.9,0.2
			c0.3,0,0.6-0.1,0.9-0.2c0.3-0.1,0.5-0.3,0.7-0.5c0.2-0.2,0.3-0.4,0.4-0.7C146,170.6,146,170.3,146,170z"/>
		<path class="st2" d="M152.8,172.8c0-0.2,0-0.3,0-0.5c0-0.2,0-0.3,0-0.5h0c-0.2,0.3-0.4,0.6-0.8,0.8c-0.4,0.2-0.7,0.3-1.2,0.3
			c-0.7,0-1.3-0.2-1.6-0.6c-0.4-0.4-0.5-1-0.5-1.7v-3.5h0.8v3.1c0,0.3,0,0.6,0.1,0.8c0,0.2,0.1,0.5,0.2,0.6c0.1,0.2,0.3,0.3,0.5,0.4
			c0.2,0.1,0.4,0.1,0.7,0.1c0.2,0,0.4,0,0.6-0.1c0.2-0.1,0.4-0.2,0.6-0.4c0.2-0.2,0.3-0.4,0.4-0.7c0.1-0.3,0.1-0.6,0.1-1v-2.9h0.8
			v4.4c0,0.2,0,0.4,0,0.6c0,0.2,0,0.5,0,0.7H152.8z"/>
		<path class="st2" d="M155.7,167.8c0-0.2,0-0.5,0-0.7h0.8c0,0.2,0,0.3,0,0.5c0,0.2,0,0.3,0,0.5h0c0.2-0.3,0.4-0.6,0.7-0.8
			c0.3-0.2,0.7-0.3,1.1-0.3c0.1,0,0.2,0,0.3,0c0.1,0,0.2,0,0.3,0l-0.1,0.8c0,0-0.1,0-0.2,0c-0.1,0-0.2,0-0.3,0c-0.2,0-0.4,0-0.6,0.1
			c-0.2,0.1-0.4,0.2-0.5,0.4c-0.1,0.2-0.3,0.4-0.4,0.7c-0.1,0.3-0.1,0.6-0.1,1v2.9h-0.8v-4.4C155.7,168.2,155.7,168,155.7,167.8z"/>
		<path class="st2" d="M167.3,165.6c-0.2-0.3-0.4-0.5-0.7-0.6c-0.3-0.2-0.6-0.2-1.1-0.2c-0.2,0-0.4,0-0.6,0.1
			c-0.2,0.1-0.4,0.2-0.6,0.3c-0.2,0.1-0.3,0.3-0.4,0.5c-0.1,0.2-0.2,0.4-0.2,0.7c0,0.3,0.1,0.5,0.2,0.7c0.1,0.2,0.2,0.3,0.4,0.5
			c0.2,0.1,0.4,0.2,0.6,0.3c0.2,0.1,0.5,0.2,0.7,0.2c0.3,0.1,0.6,0.2,0.9,0.3c0.3,0.1,0.6,0.3,0.8,0.4c0.2,0.2,0.4,0.4,0.6,0.7
			c0.2,0.3,0.2,0.6,0.2,1.1s-0.1,0.8-0.2,1.1c-0.2,0.3-0.4,0.6-0.6,0.8c-0.3,0.2-0.6,0.4-0.9,0.4c-0.3,0.1-0.7,0.1-1,0.1
			c-0.3,0-0.5,0-0.8-0.1c-0.3-0.1-0.5-0.1-0.7-0.2c-0.2-0.1-0.5-0.2-0.7-0.4c-0.2-0.2-0.4-0.3-0.5-0.6l0.8-0.6
			c0.2,0.3,0.4,0.6,0.8,0.8c0.3,0.2,0.7,0.3,1.2,0.3c0.2,0,0.4,0,0.7-0.1c0.2-0.1,0.4-0.2,0.6-0.3c0.2-0.1,0.3-0.3,0.4-0.5
			c0.1-0.2,0.2-0.4,0.2-0.7c0-0.3-0.1-0.5-0.2-0.7c-0.1-0.2-0.3-0.4-0.5-0.5c-0.2-0.1-0.4-0.2-0.7-0.3c-0.3-0.1-0.5-0.2-0.8-0.3
			c-0.3-0.1-0.6-0.2-0.8-0.3c-0.3-0.1-0.5-0.3-0.7-0.4c-0.2-0.2-0.4-0.4-0.5-0.7c-0.1-0.3-0.2-0.6-0.2-1c0-0.4,0.1-0.8,0.2-1.1
			c0.2-0.3,0.4-0.5,0.6-0.7c0.3-0.2,0.6-0.3,0.9-0.4c0.3-0.1,0.6-0.1,1-0.1c0.6,0,1.1,0.1,1.5,0.3c0.4,0.2,0.7,0.5,0.9,0.7
			L167.3,165.6z"/>
		<path class="st2" d="M174.1,172.8c0-0.2,0-0.3,0-0.5c0-0.2,0-0.3,0-0.5h0c-0.2,0.3-0.4,0.6-0.8,0.8c-0.4,0.2-0.7,0.3-1.2,0.3
			c-0.7,0-1.3-0.2-1.6-0.6c-0.4-0.4-0.5-1-0.5-1.7v-3.5h0.8v3.1c0,0.3,0,0.6,0.1,0.8c0,0.2,0.1,0.5,0.2,0.6c0.1,0.2,0.3,0.3,0.5,0.4
			c0.2,0.1,0.4,0.1,0.7,0.1c0.2,0,0.4,0,0.6-0.1c0.2-0.1,0.4-0.2,0.6-0.4c0.2-0.2,0.3-0.4,0.4-0.7c0.1-0.3,0.1-0.6,0.1-1v-2.9h0.8
			v4.4c0,0.2,0,0.4,0,0.6c0,0.2,0,0.5,0,0.7H174.1z"/>
		<path class="st2" d="M181.1,168.4c-0.1-0.2-0.3-0.4-0.6-0.5c-0.3-0.1-0.5-0.2-0.9-0.2c-0.3,0-0.6,0.1-0.9,0.2
			c-0.3,0.1-0.5,0.3-0.7,0.5c-0.2,0.2-0.3,0.4-0.4,0.7c-0.1,0.3-0.2,0.6-0.2,0.9c0,0.3,0,0.6,0.2,0.9c0.1,0.3,0.2,0.5,0.4,0.7
			c0.2,0.2,0.4,0.4,0.7,0.5c0.3,0.1,0.6,0.2,0.9,0.2c0.4,0,0.7-0.1,0.9-0.2c0.3-0.1,0.5-0.3,0.6-0.5l0.6,0.5
			c-0.2,0.3-0.5,0.5-0.9,0.7c-0.4,0.2-0.8,0.3-1.3,0.3c-0.5,0-0.9-0.1-1.2-0.2c-0.4-0.1-0.7-0.4-1-0.6c-0.3-0.3-0.5-0.6-0.6-0.9
			c-0.1-0.4-0.2-0.8-0.2-1.2c0-0.4,0.1-0.8,0.2-1.2c0.1-0.4,0.3-0.7,0.6-0.9c0.3-0.3,0.6-0.5,1-0.6c0.4-0.1,0.8-0.2,1.2-0.2
			c0.4,0,0.8,0.1,1.2,0.2c0.4,0.2,0.7,0.4,1,0.7L181.1,168.4z"/>
		<path class="st2" d="M187.2,168.4c-0.1-0.2-0.3-0.4-0.6-0.5c-0.3-0.1-0.5-0.2-0.9-0.2c-0.3,0-0.6,0.1-0.9,0.2
			c-0.3,0.1-0.5,0.3-0.7,0.5c-0.2,0.2-0.3,0.4-0.4,0.7c-0.1,0.3-0.2,0.6-0.2,0.9c0,0.3,0.1,0.6,0.2,0.9c0.1,0.3,0.2,0.5,0.4,0.7
			c0.2,0.2,0.4,0.4,0.7,0.5c0.3,0.1,0.6,0.2,0.9,0.2c0.4,0,0.7-0.1,0.9-0.2c0.3-0.1,0.5-0.3,0.6-0.5l0.6,0.5
			c-0.2,0.3-0.5,0.5-0.9,0.7c-0.4,0.2-0.8,0.3-1.3,0.3c-0.5,0-0.9-0.1-1.2-0.2c-0.4-0.1-0.7-0.4-1-0.6c-0.3-0.3-0.5-0.6-0.6-0.9
			c-0.1-0.4-0.2-0.8-0.2-1.2c0-0.4,0.1-0.8,0.2-1.2c0.1-0.4,0.3-0.7,0.6-0.9c0.3-0.3,0.6-0.5,1-0.6c0.4-0.1,0.8-0.2,1.2-0.2
			c0.4,0,0.8,0.1,1.2,0.2c0.4,0.2,0.7,0.4,1,0.7L187.2,168.4z"/>
		<path class="st2" d="M194.3,169.8c0,0.1,0,0.1,0,0.2c0,0.1,0,0.1,0,0.2h-4.7c0,0.3,0.1,0.6,0.2,0.8c0.1,0.3,0.3,0.5,0.4,0.7
			c0.2,0.2,0.4,0.3,0.7,0.4c0.3,0.1,0.5,0.2,0.8,0.2c0.4,0,0.8-0.1,1.1-0.3c0.3-0.2,0.5-0.4,0.7-0.7l0.6,0.5
			c-0.3,0.4-0.7,0.7-1.1,0.9c-0.4,0.2-0.8,0.3-1.3,0.3c-0.4,0-0.8-0.1-1.2-0.2c-0.4-0.1-0.7-0.4-0.9-0.6c-0.3-0.3-0.5-0.6-0.6-0.9
			c-0.2-0.4-0.2-0.8-0.2-1.2c0-0.4,0.1-0.8,0.2-1.2c0.1-0.4,0.3-0.7,0.6-0.9c0.3-0.3,0.6-0.5,0.9-0.6c0.3-0.1,0.7-0.2,1.1-0.2
			c0.4,0,0.8,0.1,1.2,0.2c0.3,0.2,0.6,0.4,0.8,0.6c0.2,0.3,0.4,0.6,0.5,0.9C194.2,169.1,194.3,169.4,194.3,169.8z M193.5,169.5
			c0-0.5-0.2-1-0.5-1.3c-0.3-0.4-0.8-0.5-1.4-0.5c-0.3,0-0.5,0.1-0.8,0.2c-0.2,0.1-0.4,0.2-0.6,0.4c-0.2,0.2-0.3,0.4-0.4,0.6
			c-0.1,0.2-0.2,0.5-0.2,0.7H193.5z"/>
		<path class="st2" d="M199.1,168.5c-0.1-0.2-0.3-0.4-0.6-0.6c-0.2-0.1-0.5-0.2-0.8-0.2c-0.1,0-0.3,0-0.4,0c-0.1,0-0.3,0.1-0.4,0.2
			c-0.1,0.1-0.2,0.2-0.3,0.3c-0.1,0.1-0.1,0.2-0.1,0.4c0,0.3,0.1,0.5,0.3,0.6c0.2,0.1,0.6,0.3,1,0.4c0.7,0.1,1.2,0.3,1.5,0.6
			c0.3,0.3,0.5,0.6,0.5,1.1c0,0.3-0.1,0.6-0.2,0.8c-0.1,0.2-0.3,0.4-0.5,0.5c-0.2,0.1-0.4,0.2-0.7,0.3c-0.3,0.1-0.5,0.1-0.8,0.1
			c-0.4,0-0.8-0.1-1.2-0.3c-0.4-0.2-0.7-0.5-1-0.8l0.7-0.5c0.1,0.3,0.4,0.5,0.6,0.6c0.3,0.2,0.6,0.3,0.9,0.3c0.2,0,0.3,0,0.5,0
			c0.2,0,0.3-0.1,0.4-0.2c0.1-0.1,0.2-0.2,0.3-0.3c0.1-0.1,0.1-0.3,0.1-0.5c0-0.3-0.1-0.5-0.4-0.7c-0.3-0.1-0.7-0.3-1.2-0.4
			c-0.2,0-0.4-0.1-0.5-0.2c-0.2-0.1-0.4-0.1-0.5-0.3c-0.2-0.1-0.3-0.3-0.4-0.4c-0.1-0.2-0.2-0.4-0.2-0.7c0-0.3,0.1-0.5,0.2-0.7
			c0.1-0.2,0.3-0.4,0.5-0.5c0.2-0.1,0.4-0.2,0.6-0.3c0.2-0.1,0.5-0.1,0.8-0.1c0.4,0,0.8,0.1,1.2,0.3c0.4,0.2,0.7,0.4,0.8,0.8
			L199.1,168.5z"/>
		<path class="st2" d="M204.5,168.5c-0.1-0.2-0.3-0.4-0.6-0.6c-0.2-0.1-0.5-0.2-0.8-0.2c-0.1,0-0.3,0-0.4,0c-0.1,0-0.3,0.1-0.4,0.2
			c-0.1,0.1-0.2,0.2-0.3,0.3c-0.1,0.1-0.1,0.2-0.1,0.4c0,0.3,0.1,0.5,0.3,0.6c0.2,0.1,0.6,0.3,1,0.4c0.7,0.1,1.2,0.3,1.5,0.6
			c0.3,0.3,0.5,0.6,0.5,1.1c0,0.3-0.1,0.6-0.2,0.8c-0.1,0.2-0.3,0.4-0.5,0.5c-0.2,0.1-0.4,0.2-0.7,0.3c-0.3,0.1-0.5,0.1-0.8,0.1
			c-0.4,0-0.8-0.1-1.2-0.3c-0.4-0.2-0.7-0.5-1-0.8l0.7-0.5c0.1,0.3,0.4,0.5,0.6,0.6c0.3,0.2,0.6,0.3,0.9,0.3c0.2,0,0.3,0,0.5,0
			c0.2,0,0.3-0.1,0.4-0.2c0.1-0.1,0.2-0.2,0.3-0.3c0.1-0.1,0.1-0.3,0.1-0.5c0-0.3-0.1-0.5-0.4-0.7c-0.3-0.1-0.7-0.3-1.2-0.4
			c-0.2,0-0.4-0.1-0.5-0.2c-0.2-0.1-0.4-0.1-0.5-0.3c-0.2-0.1-0.3-0.3-0.4-0.4c-0.1-0.2-0.2-0.4-0.2-0.7c0-0.3,0.1-0.5,0.2-0.7
			c0.1-0.2,0.3-0.4,0.5-0.5c0.2-0.1,0.4-0.2,0.6-0.3c0.2-0.1,0.5-0.1,0.8-0.1c0.4,0,0.8,0.1,1.2,0.3c0.4,0.2,0.7,0.4,0.8,0.8
			L204.5,168.5z"/>
		<path class="st2" d="M208,172.2c0,0.2-0.1,0.3-0.2,0.5c-0.1,0.1-0.3,0.2-0.5,0.2c-0.2,0-0.4-0.1-0.5-0.2c-0.1-0.1-0.2-0.3-0.2-0.5
			s0.1-0.3,0.2-0.5c0.1-0.1,0.3-0.2,0.5-0.2c0.2,0,0.4,0.1,0.5,0.2C207.9,171.9,208,172.1,208,172.2z"/>
	</g>
</g>
</svg>
