<?xml version="1.0" encoding="utf-8"?>
<!-- Generator: Adobe Illustrator 19.1.0, SVG Export Plug-In . SVG Version: 6.00 Build 0)  -->
<svg version="1.1" id="Layer_1" xmlns="http://www.w3.org/2000/svg" xmlns:xlink="http://www.w3.org/1999/xlink" x="0px" y="0px"
	 width="200px" height="30px" viewBox="0 0 200 30" style="enable-background:new 0 0 200 30;" xml:space="preserve">
<style type="text/css">
	.st0{fill:#231F20;}
</style>
<g>
	<path class="st0" d="M0.7,24.5v-19h4.6v15h7.4v4H0.7z"/>
	<path class="st0" d="M14.9,24.5v-19h12.8v3.9h-8.4V13h7.9v3.7h-7.9v4h8.8v3.9H14.9z"/>
	<path class="st0" d="M31.2,24.5v-19H44v3.9h-8.4V13h7.9v3.7h-7.9v4h8.8v3.9H31.2z"/>
	<path class="st0" d="M64.1,21.4c-0.3,0.5-0.7,0.9-1.2,1.4c-0.5,0.4-1,0.8-1.6,1.1c-0.6,0.3-1.3,0.6-2,0.8C58.6,24.9,57.8,25,57,25
		c-1.4,0-2.8-0.2-4-0.8c-1.2-0.5-2.3-1.2-3.1-2.1c-0.9-0.9-1.6-1.9-2.1-3.2c-0.5-1.2-0.7-2.6-0.7-4c0-1.5,0.3-2.8,0.8-4
		c0.5-1.2,1.2-2.3,2.1-3.2c0.9-0.9,1.9-1.6,3.1-2.1C54.2,5.3,55.6,5,57,5c0.7,0,1.4,0.1,2.1,0.2c0.7,0.1,1.3,0.4,1.9,0.6
		c0.6,0.3,1.1,0.6,1.6,1C63,7.2,63.4,7.6,63.7,8l-1.6,1.2c-0.2-0.3-0.5-0.6-0.8-0.9C61,8,60.6,7.7,60.2,7.5
		c-0.4-0.2-0.9-0.4-1.5-0.6c-0.5-0.1-1.1-0.2-1.7-0.2c-1.2,0-2.3,0.2-3.3,0.7c-1,0.4-1.8,1-2.5,1.8c-0.7,0.8-1.2,1.6-1.6,2.6
		c-0.4,1-0.5,2.1-0.5,3.2c0,1.1,0.2,2.2,0.6,3.2c0.4,1,0.9,1.9,1.6,2.6c0.7,0.8,1.5,1.4,2.5,1.8c1,0.4,2.1,0.7,3.3,0.7
		c1.1,0,2.1-0.2,3.1-0.7c1-0.4,1.8-1.2,2.5-2.2L64.1,21.4z"/>
	<path class="st0" d="M85.9,15c0,1.5-0.3,2.8-0.8,4c-0.5,1.2-1.2,2.3-2.1,3.2c-0.9,0.9-1.9,1.6-3.1,2.1C78.7,24.8,77.4,25,76,25
		c-1.4,0-2.7-0.2-3.9-0.8c-1.2-0.5-2.3-1.2-3.1-2.1c-0.9-0.9-1.6-1.9-2.1-3.2c-0.5-1.2-0.8-2.6-0.8-4c0-1.5,0.3-2.8,0.8-4
		c0.5-1.2,1.2-2.3,2.1-3.2c0.9-0.9,1.9-1.6,3.1-2.1C73.3,5.3,74.6,5,76,5c1.4,0,2.7,0.3,3.9,0.8c1.2,0.5,2.3,1.2,3.1,2.1
		c0.9,0.9,1.6,1.9,2.1,3.2C85.7,12.2,85.9,13.5,85.9,15z M83.9,15c0-1.1-0.2-2.2-0.5-3.2c-0.4-1-0.9-1.9-1.6-2.6
		c-0.7-0.8-1.5-1.4-2.5-1.8c-1-0.4-2.1-0.7-3.3-0.7c-1.2,0-2.3,0.2-3.3,0.7c-1,0.4-1.8,1.1-2.5,1.8c-0.7,0.8-1.2,1.6-1.6,2.6
		c-0.4,1-0.5,2.1-0.5,3.2c0,1.1,0.2,2.2,0.5,3.2c0.4,1,0.9,1.9,1.6,2.6c0.7,0.8,1.5,1.4,2.5,1.8c1,0.4,2.1,0.7,3.3,0.7
		c1.2,0,2.3-0.2,3.3-0.7c1-0.4,1.8-1,2.5-1.8c0.7-0.8,1.2-1.6,1.6-2.6C83.7,17.2,83.9,16.1,83.9,15z"/>
	<path class="st0" d="M103.5,21.7L103.5,21.7l0.1-16.2h1.9v19H103L91.9,8.1h-0.1v16.4H90v-19h2.4L103.5,21.7z"/>
	<path class="st0" d="M116.6,24.5h-1.9V7.2h-6.4V5.5H123v1.7h-6.4V24.5z"/>
	<path class="st0" d="M124.1,24.5h-2.1l8.2-19h1.9l8.2,19h-2.1l-2.1-5h-9.8L124.1,24.5z M126.9,17.7h8.4l-4.2-10.1L126.9,17.7z"/>
	<path class="st0" d="M145,24.5H143v-19h1.9V24.5z"/>
	<path class="st0" d="M163.5,21.7L163.5,21.7l0.1-16.2h1.9v19h-2.4L152,8.1H152v16.4H150v-19h2.4L163.5,21.7z"/>
	<path class="st0" d="M172.5,22.8h10.2v1.7h-12.1v-19h11.8v1.7h-9.9v6.5h9.2v1.7h-9.2V22.8z"/>
	<path class="st0" d="M188.4,24.5h-1.9v-19h5.6c0.9,0,1.8,0.1,2.6,0.3c0.8,0.2,1.5,0.5,2.1,0.9c0.6,0.4,1,0.9,1.4,1.6
		c0.3,0.6,0.5,1.4,0.5,2.4c0,0.7-0.1,1.3-0.4,1.9c-0.2,0.6-0.6,1.1-1,1.5c-0.4,0.4-0.9,0.8-1.5,1c-0.6,0.2-1.2,0.4-1.9,0.5l5.6,9.1
		h-2.4l-5.3-8.9h-3.2V24.5z M188.4,14h3.4c1.6,0,2.8-0.3,3.6-0.8c0.8-0.6,1.3-1.4,1.3-2.5c0-0.6-0.1-1.2-0.3-1.6
		c-0.2-0.4-0.6-0.8-1-1c-0.4-0.3-0.9-0.5-1.5-0.6c-0.6-0.1-1.2-0.2-2-0.2h-3.4V14z"/>
</g>
</svg>
