<?xml version="1.0" encoding="utf-8"?>
<!-- Generator: Adobe Illustrator 19.1.0, SVG Export Plug-In . SVG Version: 6.00 Build 0)  -->
<svg version="1.1" id="Layer_1" xmlns="http://www.w3.org/2000/svg" xmlns:xlink="http://www.w3.org/1999/xlink" x="0px" y="0px"
	 width="200px" height="50px" viewBox="-40 -10 200 50" style="enable-background:new -40 -10 200 50;" xml:space="preserve">
<style type="text/css">
	.st0{fill:none;}
	.st1{fill:#676767;}
	.st2{fill:#2564A6;}
	.st3{fill:#EFEEEE;}
</style>
<g>
	<line class="st0" x1="28.4" y1="15.4" x2="28.4" y2="15.4"/>
	<path class="st1" d="M23.4,14.2c-2.7,0-4.8,0.8-6.5,2.5c-1.5,1.7-2.3,3.8-2.3,6.8c0,2.8,0.8,5,2.3,6.7s3.7,2.5,6.3,2.5
		c1,0,1.8-0.2,2.7-0.3c0.8-0.2,1.7-0.5,2.5-0.8v-2.7c-0.8,0.5-1.7,0.8-2.5,1c-0.8,0.2-1.7,0.3-2.5,0.3c-1.8,0-3.3-0.7-4.3-1.8
		c-1-1.2-1.5-2.8-1.5-5s0.5-3.8,1.5-5c1-1.2,2.5-1.8,4.3-1.8c0.8,0,1.7,0.2,2.5,0.3s1.7,0.5,2.5,1v-2.7c-0.8-0.3-1.7-0.7-2.5-0.8
		C25.1,14.4,24.2,14.2,23.4,14.2z"/>
	<path class="st1" d="M40.2,14.2c-2.5,0-4.5,0.8-6,2.5c-1.5,1.7-2.2,3.8-2.2,6.8c0,2.8,0.7,5.2,2.2,6.8c1.5,1.7,3.3,2.5,6,2.5
		c2.5,0,4.5-0.8,5.8-2.5c1.5-1.7,2.2-3.8,2.2-6.8c0-2.8-0.7-5.2-2.2-6.8S42.7,14.2,40.2,14.2z M43.9,28.4c-0.8,1.2-2.2,1.8-3.7,1.8
		c-1.5,0-2.8-0.7-3.7-1.8c-0.8-1.2-1.3-2.8-1.3-5s0.5-3.8,1.3-5c0.8-1.2,2.2-1.8,3.7-1.8c1.5,0,2.8,0.7,3.7,1.8
		c0.8,1.2,1.3,2.8,1.3,5S44.7,27.2,43.9,28.4z"/>
	<path class="st1" d="M72.9,14.2c-1.3,0-2.5,0.3-3.5,1c-1,0.7-1.8,1.5-2.7,2.8c-0.5-1.2-1.2-2.2-2-2.8c-0.8-0.7-2-1-3.2-1
		c-1.3,0-2.3,0.3-3.3,0.8c-1,0.5-1.7,1.3-2.3,2.3v-2.7h-2.8v17.5h2.8v-10c0-1.7,0.5-3,1.3-4c0.8-1,2-1.5,3.5-1.5
		c1.2,0,2.2,0.3,2.8,1.2c0.7,0.8,0.8,2,0.8,3.8v10.5h2.8v-10c0-1.7,0.5-3,1.3-4c0.8-1,2-1.5,3.5-1.5c1.2,0,2.2,0.3,2.7,1.2
		c0.7,0.8,0.8,2,0.8,3.8v10.5h2.8V21.5c0-2.3-0.5-4.2-1.5-5.5C76,14.9,74.7,14.2,72.9,14.2z"/>
	<path class="st1" d="M92.7,14.2c-1.3,0-2.3,0.3-3.3,0.8c-1,0.5-1.7,1.3-2.3,2.3v-2.7h-2.8V39H87v-9.3c0.7,1,1.3,1.8,2.3,2.3
		c1,0.5,2,0.8,3.3,0.8c2.2,0,3.8-0.8,5.2-2.5c1.3-1.7,2-4,2-6.7s-0.7-5-2-6.7C96.5,15,94.9,14.2,92.7,14.2z M95.5,28.5
		c-0.8,1.2-2,1.8-3.7,1.8s-2.7-0.7-3.7-1.8c-0.8-1.2-1.3-2.8-1.3-5s0.5-3.8,1.3-5c0.8-1.2,2-1.8,3.7-1.8s2.7,0.7,3.7,1.8
		c0.8,1.2,1.3,2.8,1.3,5S96.4,27.2,95.5,28.5z"/>
	<path class="st1" d="M110.9,14.2c-1,0-1.8,0.2-2.8,0.3c-1,0.2-2,0.5-3,0.8V18c0.8-0.5,1.8-0.8,2.7-1c1-0.2,2-0.3,3-0.3
		c1.5,0,2.8,0.3,3.7,1.2c0.8,0.7,1.3,1.7,1.3,3v0.3h-4.2c-2.7,0-4.7,0.5-6,1.5c-1.3,1-2,2.5-2,4.5c0,1.7,0.5,3,1.7,4
		c1,1,2.5,1.5,4.3,1.5c1.5,0,2.7-0.3,3.7-0.8c1-0.5,1.8-1.3,2.5-2.3v2.7h2.8v-10c0-2.7-0.7-4.7-1.8-6S113.4,14.2,110.9,14.2z
		 M115.5,24c0,1.8-0.5,3.3-1.5,4.5c-1,1.2-2.2,1.7-3.8,1.7c-1.2,0-2-0.3-2.8-0.8c-0.7-0.7-1-1.5-1-2.5c0-1.3,0.5-2.2,1.3-2.7
		c0.8-0.5,2.5-0.8,4.8-0.8h2.8V24H115.5z"/>
	<path class="st1" d="M137.5,16.2c-1-1.3-2.5-1.8-4.5-1.8c-1.2,0-2.3,0.3-3.2,0.8c-1,0.5-1.7,1.3-2.5,2.3v-2.7h-2.8v17.5h2.8v-10
		c0-1.7,0.5-3,1.3-4c0.8-1,2.2-1.5,3.7-1.5c1.3,0,2.3,0.3,3,1.2c0.7,0.8,1,2,1,3.7v10.5h2.8V21.5l0,0
		C139,19.2,138.5,17.4,137.5,16.2z"/>
	<path class="st1" d="M151.3,28.4l-5.5-13.7h-3L150,32l-0.5,1.3c-0.5,1.3-1,2.3-1.5,2.7s-1,0.5-1.8,0.5h-1.7v2.3h2.3
		c1.3,0,2.3-0.3,3.2-1c0.8-0.7,1.5-2,2.3-4.2l7.7-19.2h-3L151.3,28.4z"/>
	<path class="st1" d="M17.7,8.5c0.7,0,1.2-0.2,1.5-0.3c0.5-0.2,0.8-0.5,1-1v0.7c0,0.8-0.2,1.5-0.7,2c-0.5,0.5-1,0.7-2,0.7
		c-0.3,0-0.8,0-1.2-0.2c-0.3-0.2-0.8-0.3-1.2-0.5v1.3c0.3,0.2,0.8,0.2,1.2,0.3c0.3,0,0.8,0.2,1.3,0.2c1.2,0,2.2-0.3,2.8-1
		c0.7-0.7,0.8-1.7,0.8-3V0.5h-1.3v1.2c-0.3-0.5-0.7-0.8-1-1c-0.5-0.2-1-0.3-1.5-0.3c-1,0-1.8,0.3-2.3,1.2c-0.7,0.7-0.8,1.7-0.8,3
		c0,1.2,0.3,2.2,0.8,3S16.7,8.5,17.7,8.5z M16.4,2.2c0.3-0.5,1-0.8,1.7-0.8c0.7,0,1.2,0.3,1.7,0.8c0.3,0.5,0.7,1.3,0.7,2.2
		c0,1-0.2,1.7-0.7,2.2c-0.3,0.5-1,0.8-1.7,0.8c-0.7,0-1.2-0.3-1.7-0.8c-0.3-0.5-0.5-1.2-0.5-2.2C15.9,3.5,16.1,2.7,16.4,2.2z"/>
	<path class="st1" d="M27.6,0.4c-1.2,0-2.2,0.3-2.8,1.2s-1,1.8-1,3.2s0.3,2.3,1.2,3c0.7,0.7,1.7,1.2,3,1.2c0.5,0,1,0,1.5-0.2
		c0.5-0.2,1-0.3,1.5-0.5V6.9c-0.5,0.2-1,0.5-1.3,0.5c-0.5,0.2-1,0.2-1.5,0.2c-0.8,0-1.5-0.2-2-0.7c-0.5-0.5-0.8-1.2-0.8-2h6V4.2
		c0-1.2-0.3-2.2-1-2.8C29.6,0.7,28.6,0.4,27.6,0.4z M25.1,3.9c0-0.7,0.3-1.3,0.8-1.7c0.5-0.3,1-0.7,1.7-0.7s1.2,0.2,1.5,0.7
		c0.3,0.5,0.7,1,0.7,1.7H25.1z"/>
	<path class="st1" d="M34.4,4c0-0.8,0.2-1.3,0.7-1.8c0.3-0.5,1-0.7,1.7-0.7c0.7,0,1,0.2,1.3,0.5c0.3,0.3,0.5,1,0.5,1.7v4.8h1.3V3.7
		c0-1.2-0.2-2-0.7-2.5c-0.5-0.5-1.2-0.8-2-0.8c-0.5,0-1,0.2-1.5,0.3c-0.5,0.2-0.8,0.7-1.2,1V0.5h-1.3v8h1.3V4H34.4z"/>
	<path class="st1" d="M45.7,0.4c-1.2,0-2.2,0.3-2.8,1.2c-0.7,0.8-1,1.8-1,3.2s0.3,2.3,1.2,3c0.7,0.7,1.7,1.2,3,1.2
		c0.5,0,1,0,1.5-0.2c0.5-0.2,1-0.3,1.5-0.5V6.9c-0.5,0.2-1,0.5-1.3,0.5c-0.5,0.2-1,0.2-1.5,0.2c-0.8,0-1.5-0.2-2-0.7
		c-0.5-0.5-0.8-1.2-0.8-2h6V4.2c0-1.2-0.3-2.2-1-2.8C47.6,0.7,46.7,0.4,45.7,0.4z M43.2,3.9c0-0.7,0.3-1.3,0.8-1.7
		c0.5-0.3,1-0.7,1.7-0.7c0.7,0,1.2,0.2,1.5,0.7s0.7,1,0.7,1.7H43.2z"/>
	<path class="st1" d="M54.7,1.5c0.2,0,0.3,0,0.5,0c0.2,0,0.3,0.2,0.5,0.2V0.4c-0.2,0-0.3,0-0.3,0c-0.2,0-0.2,0-0.3,0
		c-0.7,0-1.2,0.2-1.7,0.3c-0.5,0.2-0.8,0.7-1,1V0.5h-1.3v8h1.3V4.4c0-0.8,0.2-1.5,0.7-2C53.4,1.7,54,1.5,54.7,1.5z"/>
	<rect x="57.2" y="-2.5" class="st1" width="1.3" height="1.7"/>
	<rect x="57.2" y="0.5" class="st1" width="1.3" height="8"/>
	<path class="st1" d="M64.5,8.7c0.5,0,0.8,0,1.2-0.2c0.3-0.2,0.8-0.2,1.2-0.3V7c-0.3,0.2-0.7,0.3-1.2,0.5c-0.3,0.2-0.7,0.2-1.2,0.2
		c-0.8,0-1.5-0.3-2-0.8s-0.7-1.3-0.7-2.3c0-1,0.2-1.7,0.7-2.3c0.5-0.5,1.2-0.8,2-0.8c0.3,0,0.8,0,1.2,0.2c0.5,0.2,0.8,0.3,1.2,0.5
		V0.9c-0.3-0.2-0.7-0.3-1.2-0.3c-0.3-0.2-0.8-0.2-1.2-0.2c-1.2,0-2.2,0.3-3,1.2c-0.7,0.7-1,1.8-1,3c0,1.3,0.3,2.3,1,3
		C62.4,8.4,63.4,8.7,64.5,8.7z"/>
	<rect x="73.7" y="-2.5" class="st1" width="1.3" height="11"/>
	<path class="st1" d="M83.5,1.5c-0.7-0.7-1.5-1.2-2.7-1.2s-2,0.3-2.7,1.2c-0.7,0.7-1,1.8-1,3c0,1.3,0.3,2.3,1,3
		c0.7,0.7,1.5,1.2,2.7,1.2s2-0.3,2.7-1.2c0.7-0.7,1-1.8,1-3C84.5,3.2,84.2,2.2,83.5,1.5z M82.5,6.7c-0.3,0.5-1,0.8-1.7,0.8
		s-1.3-0.3-1.7-0.8c-0.3-0.5-0.7-1.3-0.7-2.2c0-1,0.2-1.7,0.7-2.2c0.3-0.5,1-0.8,1.7-0.8s1.2,0.3,1.7,0.8c0.3,0.5,0.7,1.3,0.7,2.2
		C83,5.5,82.9,6.2,82.5,6.7z"/>
	<path class="st1" d="M89.4,8.5c0.7,0,1.2-0.2,1.5-0.3c0.5-0.2,0.8-0.5,1-1v0.7c0,0.8-0.2,1.5-0.7,2c-0.5,0.5-1,0.7-2,0.7
		c-0.3,0-0.8,0-1.2-0.2c-0.3-0.2-0.8-0.3-1.2-0.5v1.3c0.3,0.2,0.8,0.2,1.2,0.3c0.3,0,0.8,0.2,1.3,0.2c1.2,0,2.2-0.3,2.8-1
		C92.9,10,93,9,93,7.7V0.5h-1.3v1.2c-0.3-0.5-0.7-0.8-1-1c-0.5-0.2-1-0.3-1.5-0.3c-1,0-1.8,0.3-2.3,1.2c-0.7,0.7-0.8,1.7-0.8,3
		c0,1.2,0.3,2.2,0.8,3S88.4,8.5,89.4,8.5z M88,2.2c0.3-0.5,1-0.8,1.7-0.8s1.2,0.3,1.7,0.8C91.7,2.7,92,3.5,92,4.4
		c0,1-0.2,1.7-0.7,2.2c-0.3,0.5-1,0.8-1.7,0.8S88.5,7,88,6.5c-0.3-0.5-0.5-1.2-0.5-2.2C87.4,3.5,87.5,2.7,88,2.2z"/>
	<path class="st1" d="M98.9,0.4c-1.2,0-2,0.3-2.7,1.2c-0.7,0.7-1,1.8-1,3c0,1.3,0.3,2.3,1,3c0.7,0.7,1.5,1.2,2.7,1.2s2-0.3,2.7-1.2
		c0.7-0.7,1-1.8,1-3c0-1.3-0.3-2.3-1-3C100.9,0.7,100,0.4,98.9,0.4z M100.5,6.7c-0.3,0.5-1,0.8-1.7,0.8c-0.7,0-1.3-0.3-1.7-0.8
		c-0.3-0.5-0.7-1.3-0.7-2.2c0-1,0.2-1.7,0.7-2.2c0.3-0.5,1-0.8,1.7-0.8c0.7,0,1.2,0.3,1.7,0.8c0.3,0.5,0.7,1.3,0.7,2.2
		C101.2,5.5,101,6.2,100.5,6.7z"/>
	<g>
		<path class="st2" d="M2.7-2.6c-9.8-9.8-25.7-9.8-35.3,0c-9.8,9.8-9.8,25.7,0,35.3c8.8,8.8,22.7,9.7,32.5,2.5
			c-5.8,3.5-13.5,2.7-18.5-2.3c-6-6-6-15.5,0-21.5s15.5-6,21.5,0l0,0c5,5,5.8,12.7,2.3,18.5C12.4,20,11.5,6.2,2.7-2.6z"/>
		<path class="st3" d="M2.9,11.2L2.9,11.2c-6-6-15.5-6-21.5,0s-6,15.5,0,21.5c5,5,12.7,5.8,18.5,2.3c1-0.7,2.2-1.3,3-2.3
			c1-1,1.7-2,2.3-3C8.7,23.9,7.9,16.2,2.9,11.2z"/>
	</g>
</g>
</svg>
