<?xml version="1.0" encoding="utf-8"?>
<!-- Generator: Adobe Illustrator 19.1.0, SVG Export Plug-In . SVG Version: 6.00 Build 0)  -->
<svg version="1.1" id="Layer_1" xmlns="http://www.w3.org/2000/svg" xmlns:xlink="http://www.w3.org/1999/xlink" x="0px" y="0px"
	 width="52px" height="52px" viewBox="-105 30 52 52" style="enable-background:new -105 30 52 52;" xml:space="preserve">
<style type="text/css">
	.st0{fill:#FFFFFF;}
</style>
<g>
	<path class="st0" d="M-79,82c-14.3,0-26-11.7-26-26c0-14.3,11.7-26,26-26c14.3,0,26,11.7,26,26C-53,70.3-64.7,82-79,82z M-79,32
		c-13.2,0-24,10.8-24,24s10.8,24,24,24s24-10.8,24-24S-65.8,32-79,32z"/>
	<polygon class="st0" points="-73.6,55.9 -85.9,68.2 -83.6,70.5 -69.1,55.9 -84.6,40.5 -86.9,42.7 	"/>
</g>
</svg>
