<?xml version="1.0" encoding="utf-8"?>
<!-- Generator: Adobe Illustrator 19.1.0, SVG Export Plug-In . SVG Version: 6.00 Build 0)  -->
<svg version="1.1" id="Layer_1" xmlns="http://www.w3.org/2000/svg" xmlns:xlink="http://www.w3.org/1999/xlink" x="0px" y="0px"
	 width="52px" height="52px" viewBox="-105 30 52 52" style="enable-background:new -105 30 52 52;" xml:space="preserve">
<style type="text/css">
	.st0{fill:#FFFFFF;}
</style>
<g>
	<path class="st0" d="M-79,30c14.3,0,26,11.7,26,26c0,14.3-11.7,26-26,26c-14.3,0-26-11.7-26-26C-105,41.7-93.3,30-79,30z M-79,80
		c13.2,0,24-10.8,24-24s-10.8-24-24-24s-24,10.8-24,24S-92.2,80-79,80z"/>
	<polygon class="st0" points="-84.4,56.1 -72.1,43.8 -74.4,41.5 -88.9,56.1 -73.4,71.5 -71.1,69.3 	"/>
</g>
</svg>
