<?xml version="1.0" encoding="utf-8"?>
<!-- Generator: Adobe Illustrator 19.1.0, SVG Export Plug-In . SVG Version: 6.00 Build 0)  -->
<svg version="1.1" id="Layer_1" xmlns="http://www.w3.org/2000/svg" xmlns:xlink="http://www.w3.org/1999/xlink" x="0px" y="0px"
	 width="200px" height="111px" viewBox="0 0 200 111" style="enable-background:new 0 0 200 111;" xml:space="preserve">
<style type="text/css">
	.st0{fill:#B6B8BA;}
</style>
<g>
	<path class="st0" d="M0.9,57.6v53.1h74.3V36.4H39.2C39.6,21.8,43,10.1,49.4,1.3c0.3-0.4,0.6-0.8,1-1.3H9C8.1,2.2,7.3,4.4,6.6,6.7
		C2.8,19.1,0.9,36.1,0.9,57.6z"/>
	<path class="st0" d="M124.8,57.6v53.1h74.3V36.4h-35.9c0.4-14.6,3.7-26.3,10.2-35.1c0.3-0.4,0.6-0.8,1-1.3h-41.4
		c-0.9,2.1-1.7,4.3-2.4,6.6C126.7,18.9,124.8,35.9,124.8,57.6z"/>
</g>
</svg>
