<?xml version="1.0" encoding="utf-8"?>
<!-- Generator: Adobe Illustrator 19.1.0, SVG Export Plug-In . SVG Version: 6.00 Build 0)  -->
<svg version="1.1" id="Layer_1" xmlns="http://www.w3.org/2000/svg" xmlns:xlink="http://www.w3.org/1999/xlink" x="0px" y="0px"
	 width="200px" height="111px" viewBox="0 0 200 111" style="enable-background:new 0 0 200 111;" xml:space="preserve">
<style type="text/css">
	.st0{fill:#B6B8BA;}
</style>
<g>
	<path class="st0" d="M199.1,53.4V0.3l-74.3,0v74.3h35.9c-0.4,14.6-3.7,26.3-10.2,35.1c-0.3,0.4-0.6,0.8-1,1.3H191
		c0.9-2.2,1.7-4.4,2.4-6.7C197.2,91.9,199.1,74.9,199.1,53.4z"/>
	<path class="st0" d="M75.2,53.4V0.3H0.9v74.3h35.9c-0.4,14.6-3.7,26.3-10.2,35.1c-0.3,0.4-0.6,0.8-1,1.3h41.4
		c0.9-2.1,1.7-4.3,2.4-6.6C73.3,92.1,75.2,75.1,75.2,53.4z"/>
</g>
</svg>
